<svg width="12" height="12" viewBox="0 0 12 12" fill="none" xmlns="http://www.w3.org/2000/svg">
<path d="M5.4 8.4C5.4 8.06863 5.66863 7.8 6 7.8C6.33137 7.8 6.6 8.06863 6.6 8.4C6.6 8.73137 6.33137 9 6 9C5.66863 9 5.4 8.73137 5.4 8.4ZM5.4 3.6C5.4 3.26863 5.66863 3 6 3C6.33137 3 6.6 3.26863 6.6 3.6V6C6.6 6.33137 6.33137 6.6 6 6.6C5.66863 6.6 5.4 6.33137 5.4 6V3.6ZM5.994 0C2.682 0 0 2.688 0 6C0 9.312 2.682 12 5.994 12C9.312 12 12 9.312 12 6C12 2.688 9.312 0 5.994 0ZM6 10.8C3.348 10.8 1.2 8.652 1.2 6C1.2 3.348 3.348 1.2 6 1.2C8.652 1.2 10.8 3.348 10.8 6C10.8 8.652 8.652 10.8 6 10.8Z" fill="white"/>
</svg>
